<?xml version="1.0" standalone="no"?>
<!DOCTYPE svg PUBLIC "-//W3C//DTD SVG 20010904//EN"
 "http://www.w3.org/TR/2001/REC-SVG-20010904/DTD/svg10.dtd">
<svg version="1.0" xmlns="http://www.w3.org/2000/svg"
 width="512.000000pt" height="512.000000pt" viewBox="0 0 512.000000 512.000000"
 preserveAspectRatio="xMidYMid meet">
<metadata>
Created by potrace 1.11, written by Peter Selinger 2001-2013
</metadata>
<g transform="translate(0.000000,512.000000) scale(0.100000,-0.100000)"
fill="#000000" stroke="none">
<path d="M2977 3593 c-4 -3 -7 -476 -7 -1050 l0 -1043 665 0 665 0 0 160 0
160 -465 0 -465 0 0 890 0 890 -193 0 c-107 0 -197 -3 -200 -7z"/>
<path d="M1530 3085 c-173 -28 -311 -95 -405 -197 -63 -68 -94 -126 -122 -228
-15 -56 -18 -109 -18 -370 0 -339 5 -380 60 -495 78 -161 206 -251 429 -302
53 -13 121 -17 266 -17 222 1 328 18 448 75 84 41 176 131 216 213 27 57 65
211 54 221 -5 6 -380 37 -382 33 -1 -2 -7 -30 -14 -63 -15 -75 -53 -124 -118
-149 -40 -17 -74 -20 -194 -20 -128 -1 -152 2 -201 22 -98 39 -143 103 -159
225 -12 93 -12 411 0 504 22 173 109 242 315 251 128 5 218 -13 273 -55 41
-31 79 -108 88 -180 5 -41 10 -53 24 -53 28 0 281 20 328 26 l43 5 -7 47 c-11
82 -54 194 -101 265 -76 114 -183 184 -348 228 -105 27 -351 35 -475 14z"/>
</g>
</svg>
